<?xml version="1.0" encoding="utf-8"?>
<!-- Generator: Adobe Illustrator 16.0.0, SVG Export Plug-In . SVG Version: 6.00 Build 0)  -->
<!DOCTYPE svg PUBLIC "-//W3C//DTD SVG 1.1//EN" "http://www.w3.org/Graphics/SVG/1.1/DTD/svg11.dtd">
<svg version="1.1" id="Warstwa_1" xmlns="http://www.w3.org/2000/svg" xmlns:xlink="http://www.w3.org/1999/xlink" x="0px" y="0px"
	 width="3796.299px" height="1408px" viewBox="0 0 3796.299 1408" enable-background="new 0 0 3796.299 1408" xml:space="preserve">
<g>
	<g>
		<path d="M2366.375,1089.929c-7.084-15.838-13.657-30.527-20.227-45.221c-23.951-53.57-47.928-107.127-71.777-160.74
			c-1.346-3.025-2.835-4.369-6.25-4.193c-5.65,0.289-11.334,0.229-16.992,0.02c-3.278-0.119-4.533,0.902-5.092,4.328
			c-3.342,20.504-7.012,40.953-10.527,61.428c-5.822,33.904-11.594,67.818-17.422,101.723c-4.532,26.371-9.139,52.73-13.668,79.104
			c-1.335,7.777-2.52,15.582-3.788,23.471c9.533,0,18.444,0,27.375,0c12.661-73.471,25.269-146.625,37.875-219.779
			c1.812,1.594,2.667,3.316,3.458,5.066c30.578,67.543,61.199,135.066,91.6,202.689c1.793,3.986,4.389,5.188,7.609,3.986
			c1.984-0.738,3.621-3.467,4.613-5.664c30.395-67.26,60.688-134.566,91.008-201.859c0.686-1.525,1.486-2.998,2.623-5.277
			c0.6,2.496,1.033,3.934,1.285,5.402c3.299,19.33,6.57,38.666,9.85,58c5.783,34.084,11.555,68.17,17.352,102.25
			c2.928,17.205,5.865,34.41,8.922,51.592c0.246,1.381,1.428,3.684,2.234,3.709c8.566,0.271,17.145,0.168,26.242,0.168
			c-15.273-90.535-30.408-180.268-45.592-270.277c-7.58,0-14.568,0.229-21.533-0.09c-3.887-0.178-5.846,1.045-7.463,4.707
			c-15.445,34.973-31.111,69.852-46.711,104.756C2396.527,1022.456,2381.68,1055.687,2366.375,1089.929z M2986.65,1100.626
			c-1.842-2.346-2.871-3.58-3.82-4.877c-7.174-9.811-14.342-19.627-21.496-29.451c-44.295-60.83-88.58-121.666-132.918-182.467
			c-1.104-1.514-2.713-3.672-4.176-3.744c-7.57-0.379-15.166-0.176-22.783-0.176c0,90.438,0,180.152,0,269.898
			c8.883,0,17.434,0,26.527,0c0-73.555,0-146.746,0-221.242c1.754,2.131,2.703,3.176,3.533,4.311
			c21.441,29.283,42.875,58.574,64.305,87.867c30.764,42.057,61.514,84.125,92.33,126.145c0.984,1.342,2.604,3.059,3.994,3.123
			c6.928,0.32,13.879,0.146,20.938,0.146c0-90.324,0-180.047,0-269.898c-8.838,0-17.373,0-26.434,0
			C2986.65,953.538,2986.65,1026.407,2986.65,1100.626z M3302.822,1149.86c51.834,0,103.248,0,154.873,0c0-8.563,0-16.805,0-25.678
			c-42.67,0-85.053,0-127.545,0c0-33.891,0-67.15,0-101.072c37.816,0,75.361,0,112.793,0c0-8.719,0-16.77,0-25.293
			c-37.865,0-75.287,0-112.654,0c0-30.893,0-61.293,0-92.211c41.174,0,81.934,0,122.795,0c0-8.775,0-17.023,0-25.398
			c-50.219,0-100.109,0-150.262,0C3302.822,970.173,3302.822,1059.778,3302.822,1149.86z M2589.398,880.128
			c0,90.293,0,180.006,0,269.674c51.752,0,103.131,0,154.471,0c0-8.633,0-16.889,0-25.736c-42.666,0-85.035,0-127.414,0
			c0-33.852,0-67.105,0-100.98c37.803,0,75.334,0,112.885,0c0-8.662,0-16.695,0-25.176c-37.871,0-75.291,0-112.852,0
			c0-30.859,0-61.258,0-92.238c41.209,0,82.113,0,123.225,0c0-8.814,0-17.041,0-25.543
			C2689.484,880.128,2639.576,880.128,2589.398,880.128z M3144.887,905.132c0,82.02,0,163.363,0,244.611c9.445,0,18.158,0,27.363,0
			c0-81.654,0-162.875,0-244.68c28.223,0,55.939,0,83.613,0c0-8.668,0-16.746,0-24.859c-65.242,0-130.135,0-195.225,0
			c0,8.42,0,16.484,0,24.928C3088.568,905.132,3116.18,905.132,3144.887,905.132z"/>
		<path d="M2366.375,1089.929c15.305-34.242,30.152-67.473,45.004-100.703c15.6-34.904,31.266-69.783,46.711-104.756
			c1.617-3.662,3.576-4.885,7.463-4.707c6.965,0.318,13.953,0.09,21.533,0.09c15.184,90.01,30.318,179.742,45.592,270.277
			c-9.098,0-17.676,0.104-26.242-0.168c-0.807-0.025-1.988-2.328-2.234-3.709c-3.057-17.182-5.994-34.387-8.922-51.592
			c-5.797-34.08-11.568-68.166-17.352-102.25c-3.279-19.334-6.551-38.67-9.85-58c-0.252-1.469-0.686-2.906-1.285-5.402
			c-1.137,2.279-1.938,3.752-2.623,5.277c-30.32,67.293-60.613,134.6-91.008,201.859c-0.992,2.197-2.629,4.926-4.613,5.664
			c-3.221,1.201-5.816,0-7.609-3.986c-30.4-67.623-61.021-135.146-91.6-202.689c-0.791-1.75-1.646-3.473-3.458-5.066
			c-12.606,73.154-25.214,146.309-37.875,219.779c-8.931,0-17.842,0-27.375,0c1.269-7.889,2.453-15.693,3.788-23.471
			c4.529-26.373,9.136-52.732,13.668-79.104c5.828-33.904,11.6-67.818,17.422-101.723c3.516-20.475,7.186-40.924,10.527-61.428
			c0.559-3.426,1.813-4.447,5.092-4.328c5.658,0.209,11.342,0.27,16.992-0.02c3.415-0.176,4.904,1.168,6.25,4.193
			c23.85,53.613,47.826,107.17,71.777,160.74C2352.718,1059.401,2359.291,1074.091,2366.375,1089.929z"/>
		<path d="M2986.65,1100.626c0-74.219,0-147.088,0-220.365c9.061,0,17.596,0,26.434,0c0,89.852,0,179.574,0,269.898
			c-7.059,0-14.01,0.174-20.938-0.146c-1.391-0.064-3.01-1.781-3.994-3.123c-30.816-42.02-61.566-84.088-92.33-126.145
			c-21.43-29.293-42.863-58.584-64.305-87.867c-0.83-1.135-1.779-2.18-3.533-4.311c0,74.496,0,147.688,0,221.242
			c-9.094,0-17.645,0-26.527,0c0-89.746,0-179.461,0-269.898c7.617,0,15.213-0.203,22.783,0.176c1.463,0.072,3.072,2.23,4.176,3.744
			c44.338,60.801,88.623,121.637,132.918,182.467c7.154,9.824,14.322,19.641,21.496,29.451
			C2983.779,1097.046,2984.809,1098.28,2986.65,1100.626z"/>
		<path d="M3302.822,1149.86c0-90.082,0-179.688,0-269.652c50.152,0,100.043,0,150.262,0c0,8.375,0,16.623,0,25.398
			c-40.861,0-81.621,0-122.795,0c0,30.918,0,61.318,0,92.211c37.367,0,74.789,0,112.654,0c0,8.523,0,16.574,0,25.293
			c-37.432,0-74.977,0-112.793,0c0,33.922,0,67.182,0,101.072c42.492,0,84.875,0,127.545,0c0,8.873,0,17.115,0,25.678
			C3406.07,1149.86,3354.656,1149.86,3302.822,1149.86z"/>
		<path d="M2589.398,880.128c50.178,0,100.086,0,150.314,0c0,8.502,0,16.729,0,25.543c-41.111,0-82.016,0-123.225,0
			c0,30.98,0,61.379,0,92.238c37.561,0,74.98,0,112.852,0c0,8.48,0,16.514,0,25.176c-37.551,0-75.082,0-112.885,0
			c0,33.875,0,67.129,0,100.98c42.379,0,84.748,0,127.414,0c0,8.848,0,17.104,0,25.736c-51.34,0-102.719,0-154.471,0
			C2589.398,1060.134,2589.398,970.421,2589.398,880.128z"/>
		<path d="M3144.887,905.132c-28.707,0-56.318,0-84.248,0c0-8.443,0-16.508,0-24.928c65.09,0,129.982,0,195.225,0
			c0,8.113,0,16.191,0,24.859c-27.674,0-55.391,0-83.613,0c0,81.805,0,163.025,0,244.68c-9.205,0-17.918,0-27.363,0
			C3144.887,1068.495,3144.887,987.151,3144.887,905.132z"/>
	</g>
	<g>
		<path fill-rule="evenodd" clip-rule="evenodd" fill="#FFFFFF" d="M904.836,878.788c-14.219,90.499-28.345,180.401-42.528,270.669
			c2.253,0.121,3.726,0.266,5.198,0.266c16.498,0.018,32.998-0.129,49.492,0.107c4.151,0.061,5.251-1.447,5.797-5.297
			c3.27-23.041,6.804-46.045,10.284-69.057c3.929-25.969,7.887-51.932,11.85-77.895c1.147-7.52,2.354-15.029,3.736-23.83
			c1.376,2.742,2.205,4.277,2.933,5.861c25.208,54.822,50.559,109.582,75.403,164.57c2.931,6.486,7.351,4.42,11.748,5.09
			c4.376,0.666,6.021-1.658,7.621-5.156c25.094-54.877,50.288-109.707,75.475-164.543c0.69-1.502,1.552-2.928,2.756-5.178
			c0.578,1.711,0.882,2.301,0.974,2.924c2.146,14.637,4.206,29.287,6.41,43.914c6.217,41.266,12.515,82.518,18.698,123.785
			c0.495,3.303,1.533,4.881,5.307,4.803c12.161-0.246,24.329-0.09,36.495-0.09c5.967,0,11.934,0,18.725,0
			c-13.977-90.592-27.852-180.525-41.709-270.356c-0.854-0.26-1.32-0.523-1.787-0.523c-18.164-0.037-36.33-0.152-54.49,0.117
			c-1.558,0.021-3.745,2.307-4.519,4.043c-17.407,39.009-34.655,78.089-51.938,117.153c-6.441,14.559-12.892,29.113-19.684,44.449
			c-1.03-1.994-1.751-3.236-2.332-4.541c-3.92-8.807-7.813-17.627-11.71-26.445c-19.281-43.633-38.537-87.275-57.931-130.858
			c-0.726-1.631-2.768-3.791-4.223-3.811C942.414,878.7,923.937,878.788,904.836,878.788z M1527.33,1014.152
			c-0.508-5.961-0.855-11.941-1.547-17.881c-4.627-39.77-22.727-72.043-55.027-95.692c-31.201-22.844-66.58-30.582-104.828-26.721
			c-23.781,2.4-45.869,9.631-65.656,22.986c-38.264,25.827-58.74,62.128-61.633,108.112c-2.568,40.863,9.043,77.346,37.783,106.809
			c38.514,39.482,86.355,51.318,139.322,40.426C1483.305,1138.297,1526.934,1083.031,1527.33,1014.152z M407.119,878.78
			c0,90.745,0,180.616,0,270.507c19.582,0,38.795,0,58.525,0c0-30.689,0-60.938,0-91.713c11.137,0,21.765,0.164,32.381-0.09
			c3.665-0.088,5.611,1.178,7.4,4.318c15.894,27.893,32.024,55.65,47.89,83.561c1.924,3.385,4.049,4.502,7.86,4.461
			c18.325-0.201,36.654-0.084,54.981-0.105c1.418-0.002,2.835-0.213,5.034-0.389c-20.102-34.25-39.842-67.885-59.651-101.637
			c1.021-0.689,1.666-1.207,2.382-1.598c26.498-14.428,42.583-36.234,46.121-66.439c3.511-29.979-4.969-56.102-27.483-76.702
			c-18.948-17.338-41.918-24.307-67.363-24.207c-34.322,0.135-68.644,0.033-102.966,0.033
			C410.601,878.78,408.973,878.78,407.119,878.78z M1913.658,1149.713c20.658,0,40.299,0.084,59.936-0.184
			c1.336-0.018,3.225-2.447,3.861-4.131c5.338-14.139,10.547-28.328,15.541-42.59c1.119-3.197,2.631-4.326,6.037-4.313
			c32.822,0.123,65.643,0.127,98.465-0.002c3.572-0.016,5.264,1.125,6.473,4.51c5.074,14.234,10.555,28.324,15.623,42.561
			c1.145,3.217,2.641,4.289,6.064,4.254c17.992-0.182,35.986-0.078,53.979-0.102c1.561-0.002,3.119-0.211,5.105-0.355
			c-0.717-2.084-1.129-3.49-1.676-4.844c-35.293-87.332-70.611-174.654-105.844-262.011c-1.195-2.965-2.834-3.832-5.93-3.799
			c-15.16,0.156-30.326,0.258-45.48-0.047c-4.377-0.086-6.311,1.258-7.91,5.348c-30.018,76.728-60.213,153.386-90.357,230.063
			C1923.002,1125.629,1918.527,1137.211,1913.658,1149.713z M825.308,879.226c-54.279,0-108.281,0-162.163,0
			c0,90.321,0,180.194,0,270.177c55.649,0,110.893,0,166.295,0c0-18.076,0-35.816,0-54.121c-36.02,0-71.754,0-107.652,0
			c0-18.762,0-36.953,0-55.527c2.386,0,4.361,0,6.337,0c27.495,0,54.991-0.064,82.486,0.072c3.693,0.02,4.896-1.002,4.845-4.781
			c-0.199-14.662-0.073-29.328-0.098-43.992c-0.003-1.291-0.221-2.582-0.388-4.412c-31.18,0-62.104,0-93.271,0
			c0-18.127,0-35.684,0-53.865c34.701,0,69.083,0,103.609,0C825.308,914.564,825.308,896.979,825.308,879.226z M1927.078,879.103
			c-69.887,0-139.293,0-208.9,0c0,18.057,0,35.788,0,54.048c25.043,0,49.785,0,75.176,0c0,72.391,0,144.252,0,216.135
			c19.879,0,39.1,0,58.846,0c0-72.195,0-143.941,0-216.27c25.252,0,49.979,0,74.879,0
			C1927.078,914.813,1927.078,897.198,1927.078,879.103z"/>
		<path fill-rule="evenodd" clip-rule="evenodd" d="M904.836,878.788c19.101,0,37.578-0.088,56.052,0.172
			c1.455,0.02,3.497,2.18,4.223,3.811c19.394,43.583,38.649,87.226,57.931,130.858c3.896,8.818,7.79,17.639,11.71,26.445
			c0.581,1.305,1.302,2.547,2.332,4.541c6.792-15.336,13.242-29.891,19.684-44.449c17.282-39.064,34.53-78.145,51.938-117.153
			c0.773-1.736,2.961-4.021,4.519-4.043c18.16-0.27,36.326-0.154,54.49-0.117c0.467,0,0.934,0.264,1.787,0.523
			c13.857,89.831,27.732,179.765,41.709,270.356c-6.791,0-12.758,0-18.725,0c-12.166,0-24.334-0.156-36.495,0.09
			c-3.773,0.078-4.812-1.5-5.307-4.803c-6.184-41.268-12.481-82.52-18.698-123.785c-2.204-14.627-4.264-29.277-6.41-43.914
			c-0.092-0.623-0.396-1.213-0.974-2.924c-1.204,2.25-2.065,3.676-2.756,5.178c-25.187,54.836-50.381,109.666-75.475,164.543
			c-1.6,3.498-3.245,5.822-7.621,5.156c-4.397-0.67-8.817,1.396-11.748-5.09c-24.845-54.988-50.195-109.748-75.403-164.57
			c-0.728-1.584-1.557-3.119-2.933-5.861c-1.382,8.801-2.589,16.311-3.736,23.83c-3.963,25.963-7.921,51.926-11.85,77.895
			c-3.48,23.012-7.015,46.016-10.284,69.057c-0.546,3.85-1.646,5.357-5.797,5.297c-16.494-0.236-32.994-0.09-49.492-0.107
			c-1.473,0-2.945-0.145-5.198-0.266C876.491,1059.189,890.617,969.287,904.836,878.788z"/>
		<path fill-rule="evenodd" clip-rule="evenodd" d="M1696.993,1014.152c-0.396,68.879-44.025,124.145-111.586,138.039
			c-12.018,2.471-23.771,3.772-35.211,3.847c-0.794,0.005-171.249,0.004-172.039-0.003c-38.046-0.322-72.566-14.366-101.735-44.27
			c-28.74-29.463-40.352-65.945-37.783-106.809c2.893-45.984,23.369-82.285,61.633-108.112
			c19.787-13.355,41.875-20.586,65.656-22.986c5.429-0.548,10.798-0.862,16.106-0.933c1.295-0.018,172.25-0.021,173.538-0.009
			c30.628,0.282,59.153,8.852,84.847,27.662c32.301,23.649,50.4,55.923,55.027,95.692
			C1696.138,1002.211,1696.485,1008.191,1696.993,1014.152z M1383.193,1100.379c48.229-0.182,84.355-37.238,84.258-86.424
			c-0.1-49.025-36.664-86.033-84.857-85.887c-48.115,0.148-84.99,37.834-84.865,86.734
			C1297.852,1063.119,1335.244,1100.561,1383.193,1100.379z"/>
		<path fill-rule="evenodd" clip-rule="evenodd" d="M407.119,878.78c1.854,0,3.482,0,5.11,0c34.322,0,68.645,0.102,102.966-0.033
			c25.445-0.1,48.415,6.869,67.363,24.207c22.515,20.601,30.994,46.724,27.483,76.702c-3.538,30.205-19.623,52.012-46.121,66.439
			c-0.716,0.391-1.361,0.908-2.382,1.598c19.81,33.752,39.55,67.387,59.651,101.637c-2.199,0.176-3.616,0.387-5.034,0.389
			c-18.327,0.021-36.656-0.096-54.981,0.105c-3.812,0.041-5.937-1.076-7.86-4.461c-15.866-27.91-31.996-55.668-47.89-83.561
			c-1.789-3.141-3.735-4.406-7.4-4.318c-10.617,0.254-21.244,0.09-32.381,0.09c0,30.775,0,61.023,0,91.713
			c-19.729,0-38.943,0-58.525,0C407.119,1059.396,407.119,969.525,407.119,878.78z M465.711,1002.869
			c18.21,0,35.894,0.762,53.476-0.248c13.385-0.77,24.093-7.484,29.414-20.635c9.743-24.084-6.31-48.092-32.895-48.918
			c-13.652-0.424-27.327-0.129-40.992-0.154c-2.939-0.006-5.878-0.002-9.003-0.002
			C465.711,956.539,465.711,979.475,465.711,1002.869z"/>
		<path fill-rule="evenodd" clip-rule="evenodd" d="M1913.658,1149.713c4.869-12.502,9.344-24.084,13.887-35.641
			c30.145-76.678,60.34-153.336,90.357-230.063c1.6-4.09,3.533-5.434,7.91-5.348c15.154,0.305,30.32,0.203,45.48,0.047
			c3.096-0.033,4.734,0.834,5.93,3.799c35.232,87.356,70.551,174.679,105.844,262.011c0.547,1.354,1.358,3.106,2.075,5.19
			c-1.953-0.016-3.944,0.007-5.505,0.009c-17.992,0.023-35.986-0.08-53.979,0.102c-3.424,0.035-4.92-1.037-6.064-4.254
			c-5.068-14.236-10.549-28.326-15.623-42.561c-1.209-3.385-2.9-4.525-6.473-4.51c-32.822,0.129-65.643,0.125-98.465,0.002
			c-3.406-0.014-4.918,1.115-6.037,4.313c-4.994,14.262-10.203,28.451-15.541,42.59c-0.637,1.684-2.525,4.113-3.861,4.131
			C1953.957,1149.797,1934.316,1149.713,1913.658,1149.713z M2013.055,1046.791c23.713,0,46.883,0,70.701,0
			c-11.758-32.064-23.295-63.529-35.354-96.416C2036.275,983.451,2024.701,1015.021,2013.055,1046.791z"/>
		<path fill-rule="evenodd" clip-rule="evenodd" d="M825.308,879.226c0,17.754,0,35.339,0,53.55c-34.526,0-68.908,0-103.609,0
			c0,18.182,0,35.738,0,53.865c31.168,0,62.092,0,93.271,0c0.167,1.83,0.385,3.121,0.388,4.412
			c0.024,14.664-0.102,29.33,0.098,43.992c0.051,3.779-1.151,4.801-4.845,4.781c-27.495-0.137-54.991-0.072-82.486-0.072
			c-1.976,0-3.951,0-6.337,0c0,18.574,0,36.766,0,55.527c35.898,0,71.633,0,107.652,0c0,18.305,0,36.045,0,54.121
			c-55.402,0-110.646,0-166.295,0c0-89.982,0-179.855,0-270.177C717.026,879.226,771.028,879.226,825.308,879.226z"/>
		<path fill-rule="evenodd" clip-rule="evenodd" d="M1927.078,879.103c0,18.096,0,35.71,0,53.913c-24.9,0-49.627,0-74.879,0
			c0,72.328,0,144.074,0,216.27c-19.746,0-38.967,0-58.846,0c0-71.883,0-143.744,0-216.135c-25.391,0-50.133,0-75.176,0
			c0-18.26,0-35.991,0-54.048C1787.785,879.103,1857.191,879.103,1927.078,879.103z"/>
	</g>
</g>
<g>
	<path fill="#A1DAF8" d="M1802.787,250.771v410.666c0,0,1.042,51.209-22.083,81.834c-24.646,32.64-54,41-88.75,41
		c-45.732,0-34.316,0-325.834,0c0,0-55.332-0.5-85.332-37.5s-28.334-89.667-6.667-128s75.202-63.29,123.667-40.333
		c31.666,15,36.107,26.412,70.916,51.083c25.75,18.25,48.917,24.333,74.417,23.583s38.368-8.128,50.333-16.333
		c21.738-14.907,47-45.75,59-71s4.42-37.396-6.58-38.896s-17.92,8.396-24.67,25.896s-43.416,66-76,66c-40,0-63.75-21.75-88.25-42.75
		s-55.533-37.608-100.533-39.108s-50.717,3.108-56.967-28.892s5.465-66.804,25.799-88.804s54.535-35.779,60.868-28.779
		s22.5,36,49.167,58.666c26.666,22.667,45.167,29.167,50.333,28.667s7.666-3.208,12.333-8.375s7.167-13.792,0.667-18.792
		c-6.5-5-39.833-17.167-63.833-54.833s-24-77,3-116.667c26.999-39.667,74.014-43.333,92.34-43.333s26.66,0,26.993,15.667
		s-0.667,52,25.833,87.833c30.391,41.094,57.25,52.25,86.5,57.75s44.5-5.5,42.75-16s-2.5-16.25-17-16.5s-47.83-2.532-76.5-36.5
		c-25.25-29.917-30.916-60.916-26.916-89.583s30.334-69.333,65-81.333s76.48-6.19,107,18.333
		C1792.204,198.271,1802.787,221.771,1802.787,250.771z"/>
	<path fill="#A1DAF8" d="M1842.121,664.104V252.772c0,0,1.5-45.668,30.833-73.002c32.358-30.153,82.4-33.683,109.75-22
		c25.75,11,61.084,35,67.084,75.333s-0.999,59.333-7.333,70s-5.533,17.184-0.667,21.667c6.333,5.833,15.833,12.167,24.666,2.5
		c10.981-12.017,17.551-31.15,20.25-50.75c2.138-15.52-1.582-32.083,15.751-39.417s48.666-2,74.333,16.667s53.334,54.667,48.667,89
		s-16.334,72.333-57.668,93c-34.441,17.221-66.083,15.25-106.583-6.75s-64.749-27.917-103.25-10.5
		c-35.043,15.852-51,48.25-56.5,64.25s-10,67,20.5,97.5c34.758,34.759,75.864,36.948,103.834,29.5
		c30.667-8.167,37.078-18.136,40.833-22.667c4.834-5.833,2.088-13.875-1.333-19.333c-4.004-6.39-9.833-10.833-17.156-5.833
		c-6.317,4.313-25.178,19.333-51.678,16.833s-58.692-16.304-61.75-56.25c-2.583-33.75,12.358-51.461,22.25-62
		c11.042-11.765,44.676-24.421,71.676-7.421c27,17,44.324,28.171,82.324,29.671s77.177-13.196,101.177-33.696
		c24-20.5,32.323-42.804,40.323-53.304s19.333-13,37-1s50.859,50.912,56,82c5.25,31.75,1.333,59.667-18.667,61
		s-34.666-7.667-70.666-0.667s-75.666,35.334-92.666,60c-17,24.667-21.001,64.417-21.001,78.667s6.75,15.5,16.5,15.5
		s14.25-3.25,16-15.25s-2.166-52.917,36.834-81.583c39-28.667,88-35,125-9.334c37,25.667,56.666,69.167,48.666,109.167
		s-43,90-105.5,90s-320.5,0-320.5,0s-55.788,2.912-85.718-31.063C1840.019,714.932,1842.121,664.104,1842.121,664.104z"/>
</g>
</svg>
