<?xml version="1.0" encoding="utf-8"?>
<!-- Generator: Adobe Illustrator 25.4.1, SVG Export Plug-In . SVG Version: 6.00 Build 0)  -->
<svg version="1.1" id="Livello_1" xmlns="http://www.w3.org/2000/svg" xmlns:xlink="http://www.w3.org/1999/xlink" x="0px" y="0px"
	 viewBox="0 0 215 79" style="enable-background:new 0 0 215 79;" xml:space="preserve">
<style type="text/css">
	.st0{fill:#FFFFFF;}
	.st1{fill-rule:evenodd;clip-rule:evenodd;fill:#FFFFFF;}
	.st2{fill-rule:evenodd;clip-rule:evenodd;}
	.st3{fill:#A0D9F7;}
</style>
<g>
	<g>
		<g>
			<path class="st0" d="M136.5,67.6c-0.5-1-0.9-2-1.3-3c-1.6-3.5-3.1-7-4.7-10.5c-0.1-0.2-0.2-0.3-0.4-0.3c-0.4,0-0.7,0-1.1,0
				c-0.2,0-0.3,0.1-0.3,0.3c-0.2,1.3-0.5,2.7-0.7,4c-0.4,2.2-0.8,4.4-1.1,6.7c-0.3,1.7-0.6,3.5-0.9,5.2c-0.1,0.5-0.2,1-0.2,1.5
				c0.6,0,1.2,0,1.8,0c0.8-4.8,1.7-9.6,2.5-14.4c0.1,0.1,0.2,0.2,0.2,0.3c2,4.4,4,8.9,6,13.3c0.1,0.3,0.3,0.3,0.5,0.3
				c0.1,0,0.2-0.2,0.3-0.4c2-4.4,4-8.8,6-13.2c0-0.1,0.1-0.2,0.2-0.3c0,0.2,0.1,0.3,0.1,0.4c0.2,1.3,0.4,2.5,0.6,3.8
				c0.4,2.2,0.8,4.5,1.1,6.7c0.2,1.1,0.4,2.3,0.6,3.4c0,0.1,0.1,0.2,0.1,0.2c0.6,0,1.1,0,1.7,0c-1-5.9-2-11.8-3-17.7
				c-0.5,0-1,0-1.4,0c-0.3,0-0.4,0.1-0.5,0.3c-1,2.3-2,4.6-3.1,6.9C138.4,63.2,137.5,65.4,136.5,67.6z M177.1,68.3
				c-0.1-0.2-0.2-0.2-0.3-0.3c-0.5-0.6-0.9-1.3-1.4-1.9c-2.9-4-5.8-8-8.7-12c-0.1-0.1-0.2-0.2-0.3-0.2c-0.5,0-1,0-1.5,0
				c0,5.9,0,11.8,0,17.7c0.6,0,1.1,0,1.7,0c0-4.8,0-9.6,0-14.5c0.1,0.1,0.2,0.2,0.2,0.3c1.4,1.9,2.8,3.8,4.2,5.8
				c2,2.8,4,5.5,6.1,8.3c0.1,0.1,0.2,0.2,0.3,0.2c0.5,0,0.9,0,1.4,0c0-5.9,0-11.8,0-17.7c-0.6,0-1.1,0-1.7,0
				C177.1,58.7,177.1,63.5,177.1,68.3z M197.8,71.5c3.4,0,6.8,0,10.2,0c0-0.6,0-1.1,0-1.7c-2.8,0-5.6,0-8.4,0c0-2.2,0-4.4,0-6.6
				c2.5,0,4.9,0,7.4,0c0-0.6,0-1.1,0-1.7c-2.5,0-4.9,0-7.4,0c0-2,0-4,0-6c2.7,0,5.4,0,8.1,0c0-0.6,0-1.1,0-1.7c-3.3,0-6.6,0-9.9,0
				C197.8,59.8,197.8,65.6,197.8,71.5z M151.1,53.9c0,5.9,0,11.8,0,17.7c3.4,0,6.8,0,10.1,0c0-0.6,0-1.1,0-1.7c-2.8,0-5.6,0-8.4,0
				c0-2.2,0-4.4,0-6.6c2.5,0,4.9,0,7.4,0c0-0.6,0-1.1,0-1.7c-2.5,0-4.9,0-7.4,0c0-2,0-4,0-6c2.7,0,5.4,0,8.1,0c0-0.6,0-1.1,0-1.7
				C157.6,53.9,154.4,53.9,151.1,53.9z M187.5,55.5c0,5.4,0,10.7,0,16c0.6,0,1.2,0,1.8,0c0-5.4,0-10.7,0-16c1.9,0,3.7,0,5.5,0
				c0-0.6,0-1.1,0-1.6c-4.3,0-8.5,0-12.8,0c0,0.6,0,1.1,0,1.6C183.8,55.5,185.6,55.5,187.5,55.5z"/>
			<path class="st0" d="M136.5,67.6c1-2.2,2-4.4,3-6.6c1-2.3,2-4.6,3.1-6.9c0.1-0.2,0.2-0.3,0.5-0.3c0.5,0,0.9,0,1.4,0
				c1,5.9,2,11.8,3,17.7c-0.6,0-1.2,0-1.7,0c-0.1,0-0.1-0.2-0.1-0.2c-0.2-1.1-0.4-2.3-0.6-3.4c-0.4-2.2-0.8-4.5-1.1-6.7
				c-0.2-1.3-0.4-2.5-0.6-3.8c0-0.1,0-0.2-0.1-0.4c-0.1,0.1-0.1,0.2-0.2,0.3c-2,4.4-4,8.8-6,13.2c-0.1,0.1-0.2,0.3-0.3,0.4
				c-0.2,0.1-0.4,0-0.5-0.3c-2-4.4-4-8.9-6-13.3c-0.1-0.1-0.1-0.2-0.2-0.3c-0.8,4.8-1.7,9.6-2.5,14.4c-0.6,0-1.2,0-1.8,0
				c0.1-0.5,0.2-1,0.2-1.5c0.3-1.7,0.6-3.5,0.9-5.2c0.4-2.2,0.8-4.4,1.1-6.7c0.2-1.3,0.5-2.7,0.7-4c0-0.2,0.1-0.3,0.3-0.3
				c0.4,0,0.7,0,1.1,0c0.2,0,0.3,0.1,0.4,0.3c1.6,3.5,3.1,7,4.7,10.5C135.6,65.6,136,66.6,136.5,67.6z"/>
			<path class="st0" d="M177.1,68.3c0-4.9,0-9.6,0-14.4c0.6,0,1.2,0,1.7,0c0,5.9,0,11.8,0,17.7c-0.5,0-0.9,0-1.4,0
				c-0.1,0-0.2-0.1-0.3-0.2c-2-2.8-4-5.5-6.1-8.3c-1.4-1.9-2.8-3.8-4.2-5.8c-0.1-0.1-0.1-0.1-0.2-0.3c0,4.9,0,9.7,0,14.5
				c-0.6,0-1.2,0-1.7,0c0-5.9,0-11.8,0-17.7c0.5,0,1,0,1.5,0c0.1,0,0.2,0.1,0.3,0.2c2.9,4,5.8,8,8.7,12c0.5,0.6,0.9,1.3,1.4,1.9
				C176.9,68.1,177,68.2,177.1,68.3z"/>
			<path class="st0" d="M197.8,71.5c0-5.9,0-11.8,0-17.7c3.3,0,6.6,0,9.9,0c0,0.5,0,1.1,0,1.7c-2.7,0-5.4,0-8.1,0c0,2,0,4,0,6
				c2.4,0,4.9,0,7.4,0c0,0.6,0,1.1,0,1.7c-2.5,0-4.9,0-7.4,0c0,2.2,0,4.4,0,6.6c2.8,0,5.6,0,8.4,0c0,0.6,0,1.1,0,1.7
				C204.6,71.5,201.2,71.5,197.8,71.5z"/>
			<path class="st0" d="M151.1,53.9c3.3,0,6.6,0,9.9,0c0,0.6,0,1.1,0,1.7c-2.7,0-5.4,0-8.1,0c0,2,0,4,0,6c2.5,0,4.9,0,7.4,0
				c0,0.6,0,1.1,0,1.7c-2.5,0-4.9,0-7.4,0c0,2.2,0,4.4,0,6.6c2.8,0,5.6,0,8.4,0c0,0.6,0,1.1,0,1.7c-3.4,0-6.7,0-10.1,0
				C151.1,65.7,151.1,59.8,151.1,53.9z"/>
			<path class="st0" d="M187.5,55.5c-1.9,0-3.7,0-5.5,0c0-0.6,0-1.1,0-1.6c4.3,0,8.5,0,12.8,0c0,0.5,0,1.1,0,1.6c-1.8,0-3.6,0-5.5,0
				c0,5.4,0,10.7,0,16c-0.6,0-1.2,0-1.8,0C187.5,66.2,187.5,60.9,187.5,55.5z"/>
		</g>
		<g>
			<path class="st1" d="M40.6,53.8c-0.9,5.9-1.9,11.8-2.8,17.7c0.1,0,0.2,0,0.3,0c1.1,0,2.2,0,3.2,0c0.3,0,0.3-0.1,0.4-0.3
				c0.2-1.5,0.4-3,0.7-4.5c0.3-1.7,0.5-3.4,0.8-5.1c0.1-0.5,0.2-1,0.2-1.6c0.1,0.2,0.1,0.3,0.2,0.4c1.7,3.6,3.3,7.2,4.9,10.8
				c0.2,0.4,0.5,0.3,0.8,0.3c0.3,0,0.4-0.1,0.5-0.3c1.6-3.6,3.3-7.2,4.9-10.8c0-0.1,0.1-0.2,0.2-0.3c0,0.1,0.1,0.2,0.1,0.2
				c0.1,1,0.3,1.9,0.4,2.9c0.4,2.7,0.8,5.4,1.2,8.1c0,0.2,0.1,0.3,0.3,0.3c0.8,0,1.6,0,2.4,0c0.4,0,0.8,0,1.2,0
				c-0.9-5.9-1.8-11.8-2.7-17.7c-0.1,0-0.1,0-0.1,0c-1.2,0-2.4,0-3.6,0c-0.1,0-0.2,0.2-0.3,0.3c-1.1,2.6-2.3,5.1-3.4,7.7
				c-0.4,1-0.8,1.9-1.3,2.9c-0.1-0.1-0.1-0.2-0.2-0.3c-0.3-0.6-0.5-1.2-0.8-1.7c-1.3-2.9-2.5-5.7-3.8-8.6c0-0.1-0.2-0.2-0.3-0.2
				C43.1,53.8,41.9,53.8,40.6,53.8z M81.4,62.6c0-0.4-0.1-0.8-0.1-1.2c-0.3-2.6-1.5-4.7-3.6-6.3c-2-1.5-4.4-2-6.9-1.8
				c-1.6,0.2-3,0.6-4.3,1.5c-2.5,1.7-3.9,4.1-4,7.1c-0.2,2.7,0.6,5.1,2.5,7c2.5,2.6,5.7,3.4,9.1,2.7C78.6,70.8,81.4,67.2,81.4,62.6z
				 M8,53.8c0,5.9,0,11.8,0,17.7c1.3,0,2.5,0,3.8,0c0-2,0-4,0-6c0.7,0,1.4,0,2.1,0c0.2,0,0.4,0.1,0.5,0.3c1,1.8,2.1,3.6,3.1,5.5
				c0.1,0.2,0.3,0.3,0.5,0.3c1.2,0,2.4,0,3.6,0c0.1,0,0.2,0,0.3,0c-1.3-2.2-2.6-4.5-3.9-6.7c0.1,0,0.1-0.1,0.2-0.1
				c1.7-0.9,2.8-2.4,3-4.4c0.2-2-0.3-3.7-1.8-5c-1.2-1.1-2.7-1.6-4.4-1.6c-2.3,0-4.5,0-6.8,0C8.2,53.8,8.1,53.8,8,53.8z M106.8,71.5
				c1.4,0,2.6,0,3.9,0c0.1,0,0.2-0.2,0.3-0.3c0.3-0.9,0.7-1.9,1-2.8c0.1-0.2,0.2-0.3,0.4-0.3c2.2,0,4.3,0,6.5,0
				c0.2,0,0.3,0.1,0.4,0.3c0.3,0.9,0.7,1.9,1,2.8c0.1,0.2,0.2,0.3,0.4,0.3c1.2,0,2.4,0,3.5,0c0.1,0,0.2,0,0.3,0
				c0-0.1-0.1-0.2-0.1-0.3c-2.3-5.7-4.6-11.5-6.9-17.2c-0.1-0.2-0.2-0.3-0.4-0.2c-1,0-2,0-3,0c-0.3,0-0.4,0.1-0.5,0.4
				c-2,5-3.9,10.1-5.9,15.1C107.4,70,107.1,70.7,106.8,71.5z M35.4,53.8c-3.6,0-7.1,0-10.6,0c0,5.9,0,11.8,0,17.7
				c3.6,0,7.3,0,10.9,0c0-1.2,0-2.3,0-3.5c-2.4,0-4.7,0-7.1,0c0-1.2,0-2.4,0-3.6c0.2,0,0.3,0,0.4,0c1.8,0,3.6,0,5.4,0
				c0.2,0,0.3-0.1,0.3-0.3c0-1,0-1.9,0-2.9c0-0.1,0-0.2,0-0.3c-2,0-4.1,0-6.1,0c0-1.2,0-2.3,0-3.5c2.3,0,4.5,0,6.8,0
				C35.4,56.1,35.4,55,35.4,53.8z M107.7,53.8c-4.6,0-9.1,0-13.7,0c0,1.2,0,2.3,0,3.5c1.6,0,3.3,0,4.9,0c0,4.7,0,9.5,0,14.2
				c1.3,0,2.6,0,3.9,0c0-4.7,0-9.4,0-14.2c1.7,0,3.3,0,4.9,0C107.7,56.1,107.7,55,107.7,53.8z"/>
			<path class="st1" d="M40.6,53.8c1.3,0,2.5,0,3.7,0c0.1,0,0.2,0.1,0.3,0.2c1.3,2.9,2.5,5.7,3.8,8.6c0.3,0.6,0.5,1.2,0.8,1.7
				c0,0.1,0.1,0.2,0.2,0.3c0.4-1,0.9-2,1.3-2.9c1.1-2.6,2.3-5.1,3.4-7.7c0.1-0.1,0.2-0.3,0.3-0.3c1.2,0,2.4,0,3.6,0c0,0,0.1,0,0.1,0
				c0.9,5.9,1.8,11.8,2.7,17.7c-0.4,0-0.8,0-1.2,0c-0.8,0-1.6,0-2.4,0c-0.2,0-0.3-0.1-0.3-0.3c-0.4-2.7-0.8-5.4-1.2-8.1
				c-0.1-1-0.3-1.9-0.4-2.9c0,0,0-0.1-0.1-0.2c-0.1,0.1-0.1,0.2-0.2,0.3c-1.7,3.6-3.3,7.2-4.9,10.8c-0.1,0.2-0.2,0.4-0.5,0.3
				c-0.3,0-0.6,0.1-0.8-0.3c-1.6-3.6-3.3-7.2-4.9-10.8c0-0.1-0.1-0.2-0.2-0.4c-0.1,0.6-0.2,1.1-0.2,1.6c-0.3,1.7-0.5,3.4-0.8,5.1
				c-0.2,1.5-0.5,3-0.7,4.5c0,0.3-0.1,0.4-0.4,0.3c-1.1,0-2.2,0-3.2,0c-0.1,0-0.2,0-0.3,0C38.8,65.6,39.7,59.7,40.6,53.8z"/>
			<path class="st1" d="M92.6,62.6c0,4.5-2.9,8.1-7.3,9.1c-0.8,0.2-1.6,0.2-2.3,0.3c-0.1,0-11.2,0-11.3,0c-2.5,0-4.8-0.9-6.7-2.9
				c-1.9-1.9-2.6-4.3-2.5-7c0.2-3,1.5-5.4,4-7.1c1.3-0.9,2.7-1.3,4.3-1.5c0.4,0,0.7-0.1,1.1-0.1c0.1,0,11.3,0,11.4,0
				c2,0,3.9,0.6,5.6,1.8c2.1,1.6,3.3,3.7,3.6,6.3C92.5,61.9,92.5,62.3,92.6,62.6z M72,68.3c3.2,0,5.5-2.4,5.5-5.7
				c0-3.2-2.4-5.6-5.6-5.6c-3.2,0-5.6,2.5-5.6,5.7C66.4,65.9,68.8,68.3,72,68.3z"/>
			<path class="st1" d="M8,53.8c0.1,0,0.2,0,0.3,0c2.3,0,4.5,0,6.8,0c1.7,0,3.2,0.5,4.4,1.6c1.5,1.4,2,3.1,1.8,5
				c-0.2,2-1.3,3.4-3,4.4c0,0-0.1,0.1-0.2,0.1c1.3,2.2,2.6,4.4,3.9,6.7c-0.1,0-0.2,0-0.3,0c-1.2,0-2.4,0-3.6,0
				c-0.2,0-0.4-0.1-0.5-0.3c-1-1.8-2.1-3.6-3.1-5.5c-0.1-0.2-0.2-0.3-0.5-0.3c-0.7,0-1.4,0-2.1,0c0,2,0,4,0,6c-1.3,0-2.6,0-3.8,0
				C8,65.6,8,59.7,8,53.8z M11.8,61.9c1.2,0,2.4,0,3.5,0c0.9-0.1,1.6-0.5,1.9-1.4c0.6-1.6-0.4-3.2-2.2-3.2c-0.9,0-1.8,0-2.7,0
				c-0.2,0-0.4,0-0.6,0C11.8,58.9,11.8,60.4,11.8,61.9z"/>
			<path class="st1" d="M106.8,71.5c0.3-0.8,0.6-1.6,0.9-2.3c2-5,4-10.1,5.9-15.1c0.1-0.3,0.2-0.4,0.5-0.4c1,0,2,0,3,0
				c0.2,0,0.3,0.1,0.4,0.2c2.3,5.7,4.6,11.5,6.9,17.2c0,0.1,0.1,0.2,0.1,0.3c-0.1,0-0.3,0-0.4,0c-1.2,0-2.4,0-3.5,0
				c-0.2,0-0.3-0.1-0.4-0.3c-0.3-0.9-0.7-1.9-1-2.8c-0.1-0.2-0.2-0.3-0.4-0.3c-2.2,0-4.3,0-6.5,0c-0.2,0-0.3,0.1-0.4,0.3
				c-0.3,0.9-0.7,1.9-1,2.8c0,0.1-0.2,0.3-0.3,0.3C109.4,71.5,108.1,71.5,106.8,71.5z M113.3,64.8c1.6,0,3.1,0,4.6,0
				c-0.8-2.1-1.5-4.2-2.3-6.3C114.8,60.6,114.1,62.7,113.3,64.8z"/>
			<path class="st1" d="M35.4,53.8c0,1.2,0,2.3,0,3.5c-2.3,0-4.5,0-6.8,0c0,1.2,0,2.3,0,3.5c2,0,4.1,0,6.1,0c0,0.1,0,0.2,0,0.3
				c0,1,0,1.9,0,2.9c0,0.2-0.1,0.3-0.3,0.3c-1.8,0-3.6,0-5.4,0c-0.1,0-0.3,0-0.4,0c0,1.2,0,2.4,0,3.6c2.4,0,4.7,0,7.1,0
				c0,1.2,0,2.4,0,3.5c-3.6,0-7.3,0-10.9,0c0-5.9,0-11.8,0-17.7C28.3,53.8,31.9,53.8,35.4,53.8z"/>
			<path class="st1" d="M107.7,53.8c0,1.2,0,2.3,0,3.5c-1.6,0-3.3,0-4.9,0c0,4.7,0,9.4,0,14.2c-1.3,0-2.6,0-3.9,0
				c0-4.7,0-9.4,0-14.2c-1.7,0-3.3,0-4.9,0c0-1.2,0-2.4,0-3.5C98.5,53.8,103.1,53.8,107.7,53.8z"/>
			<path class="st2" d="M72,68.3c-3.1,0-5.6-2.4-5.6-5.6c0-3.2,2.4-5.7,5.6-5.7c3.2,0,5.6,2.4,5.6,5.6C77.5,65.9,75.2,68.3,72,68.3z
				"/>
			<path class="st2" d="M11.8,61.9c0-1.5,0-3,0-4.6c0.2,0,0.4,0,0.6,0c0.9,0,1.8,0,2.7,0c1.7,0.1,2.8,1.6,2.2,3.2
				c-0.3,0.9-1.1,1.3-1.9,1.4C14.2,62,13,61.9,11.8,61.9z"/>
			<path class="st2" d="M113.3,64.8c0.8-2.1,1.5-4.2,2.3-6.3c0.8,2.2,1.5,4.2,2.3,6.3C116.4,64.8,114.8,64.8,113.3,64.8z"/>
		</g>
	</g>
	<g>
		<path class="st3" d="M99.5,12.6v26.9c0,0,0.1,3.4-1.4,5.4c-1.6,2.1-3.5,2.7-5.8,2.7c-3,0-2.2,0-21.4,0c0,0-3.6,0-5.6-2.5
			c-2-2.4-1.9-5.9-0.4-8.4s4.9-4.1,8.1-2.6c2.1,1,2.4,1.7,4.6,3.3c1.7,1.2,3.2,1.6,4.9,1.5s2.5-0.5,3.3-1.1c1.4-1,3.1-3,3.9-4.7
			c0.8-1.7,0.3-2.5-0.4-2.6c-0.7-0.1-1.2,0.6-1.6,1.7c-0.4,1.1-2.8,4.3-5,4.3c-2.6,0-4.2-1.4-5.8-2.8c-1.6-1.4-3.6-2.5-6.6-2.6
			c-3-0.1-3.3,0.2-3.7-1.9s0.4-4.4,1.7-5.8s3.6-2.3,4-1.9c0.4,0.5,1.5,2.4,3.2,3.8c1.7,1.5,3,1.9,3.3,1.9c0.3,0,0.5-0.2,0.8-0.5
			c0.3-0.3,0.5-0.9,0-1.2c-0.4-0.3-2.6-1.1-4.2-3.6c-1.6-2.5-1.6-5,0.2-7.6c1.8-2.6,4.9-2.8,6.1-2.8s1.7,0,1.8,1c0,1,0,3.4,1.7,5.8
			c2,2.7,3.8,3.4,5.7,3.8c1.9,0.4,2.9-0.4,2.8-1c-0.1-0.7-0.2-1.1-1.1-1.1c-1,0-3.1-0.2-5-2.4c-1.7-2-2-4-1.8-5.9s2-4.5,4.3-5.3
			c2.3-0.8,5-0.4,7,1.2C98.8,9.2,99.5,10.7,99.5,12.6z"/>
		<path class="st3" d="M102.1,39.7v-27c0,0,0.1-3,2-4.8c2.1-2,5.4-2.2,7.2-1.4c1.7,0.7,4,2.3,4.4,4.9c0.4,2.6-0.1,3.9-0.5,4.6
			c-0.4,0.7-0.4,1.1,0,1.4c0.4,0.4,1,0.8,1.6,0.2c0.7-0.8,1.2-2,1.3-3.3c0.1-1-0.1-2.1,1-2.6c1.1-0.5,3.2-0.1,4.9,1.1
			s3.5,3.6,3.2,5.8c-0.3,2.3-1.1,4.7-3.8,6.1c-2.3,1.1-4.3,1-7-0.4s-4.2-1.8-6.8-0.7c-2.3,1-3.3,3.2-3.7,4.2s-0.7,4.4,1.3,6.4
			c2.3,2.3,5,2.4,6.8,1.9c2-0.5,2.4-1.2,2.7-1.5c0.3-0.4,0.1-0.9-0.1-1.3c-0.3-0.4-0.6-0.7-1.1-0.4c-0.4,0.3-1.7,1.3-3.4,1.1
			c-1.7-0.2-3.8-1.1-4-3.7c-0.2-2.2,0.8-3.4,1.5-4.1c0.7-0.8,2.9-1.6,4.7-0.5c1.8,1.1,2.9,1.8,5.4,1.9c2.5,0.1,5.1-0.9,6.6-2.2
			c1.6-1.3,2.1-2.8,2.6-3.5s1.3-0.9,2.4-0.1c1.2,0.8,3.3,3.3,3.7,5.4c0.3,2.1,0.1,3.9-1.2,4c-1.3,0.1-2.3-0.5-4.6,0
			c-2.4,0.5-5,2.3-6.1,3.9c-1.1,1.6-1.4,4.2-1.4,5.2s0.4,1,1.1,1c0.6,0,0.9-0.2,1-1c0.1-0.8-0.1-3.5,2.4-5.3
			c2.6-1.9,5.8-2.3,8.2-0.6c2.4,1.7,3.7,4.5,3.2,7.2c-0.5,2.6-2.8,5.9-6.9,5.9c-4.1,0-21,0-21,0s-3.7,0.2-5.6-2
			C101.9,43,102.1,39.7,102.1,39.7z"/>
	</g>
</g>
</svg>
